<?xml version="1.0" standalone="no"?>
<!DOCTYPE svg PUBLIC "-//W3C//DTD SVG 20010904//EN"
 "http://www.w3.org/TR/2001/REC-SVG-20010904/DTD/svg10.dtd">
<svg version="1.0" xmlns="http://www.w3.org/2000/svg"
 width="180.000000pt" height="180.000000pt" viewBox="0 0 180.000000 180.000000"
 preserveAspectRatio="xMidYMid meet">
<metadata>
Created by potrace 1.11, written by Peter Selinger 2001-2013
</metadata>
<g transform="translate(0.000000,180.000000) scale(0.100000,-0.100000)"
fill="#000000" stroke="none">
<path d="M249 1560 c0 -16 0 -52 0 -80 0 -96 -3 -90 42 -90 36 0 40 -3 39 -22
-4 -48 0 -58 23 -58 22 0 23 -3 22 -57 -2 -78 1 -83 47 -83 33 0 39 -3 34 -16
-3 -9 -6 -20 -6 -25 0 -13 -44 -2 -102 23 -27 12 -50 20 -52 17 -2 -2 -22 -42
-44 -89 -44 -93 -43 -101 15 -122 28 -10 33 -16 27 -33 -3 -11 -7 -166 -8
-345 l-1 -325 40 -5 c39 -5 40 -6 39 -43 l-1 -38 226 1 c253 1 298 10 372 69
38 31 40 32 34 9 -6 -25 -6 -26 105 -70 45 -18 212 -19 271 -2 109 32 181 116
181 210 0 67 -19 108 -67 152 -25 23 -45 45 -45 49 0 5 18 27 40 48 40 39 40
39 40 117 l0 78 -41 0 c-28 0 -39 4 -36 13 2 8 29 12 85 12 45 -1 82 3 82 8 0
8 -42 109 -78 186 -8 18 -57 128 -107 245 -82 189 -95 211 -117 214 -19 2 -29
13 -41 43 l-16 40 -117 -3 -117 -3 -46 -106 c-25 -58 -59 -134 -74 -170 -15
-35 -36 -80 -45 -100 l-17 -35 -48 46 -48 46 43 42 42 42 1 80 2 80 -42 0
c-39 0 -42 2 -40 28 3 53 10 52 -251 52 l-244 0 -1 -30z m1023 -612 c2 -6 15
-12 28 -13 13 -1 26 -7 28 -13 3 -9 -29 -12 -118 -12 -67 0 -119 3 -117 8 2 4
7 15 10 25 5 14 19 17 86 17 51 0 81 -4 83 -12z m-439 -48 c-16 -33 -24 -36
-52 -18 -19 11 -18 12 2 28 49 38 72 33 50 -10z m102 -51 c6 -6 13 -89 8 -89
-12 0 -55 36 -76 64 l-25 32 44 -1 c24 -1 46 -4 49 -6z m86 -158 c1 -9 0 -26
-1 -38 -1 -18 4 -23 24 -23 25 0 26 -1 26 -70 l0 -70 40 0 c36 0 40 -3 40 -24
0 -24 0 -24 -55 -12 -30 7 -65 20 -79 29 -22 15 -25 15 -30 1 -5 -13 -10 -12
-34 8 l-29 23 24 28 c30 36 37 67 30 126 -6 47 -5 48 19 43 13 -2 24 -12 25
-21z"/>
</g>
</svg>
